<svg width="150" height="161" viewBox="0 0 150 161" fill="none" xmlns="http://www.w3.org/2000/svg">
<path d="M75 150C116.421 150 150 116.421 150 75C150 33.5786 116.421 0 75 0C33.5786 0 0 33.5786 0 75C0 116.421 33.5786 150 75 150Z" fill="#252B2A"/>
<g filter="url(#filter0_d_7_3)">
<path d="M118 43H32C29.2386 43 27 45.2386 27 48V153C27 155.761 29.2386 158 32 158H118C120.761 158 123 155.761 123 153V48C123 45.2386 120.761 43 118 43Z" fill="#3F4946"/>
</g>
<path d="M66 53H40C38.3431 53 37 54.3431 37 56C37 57.6569 38.3431 59 40 59H66C67.6569 59 69 57.6569 69 56C69 54.3431 67.6569 53 66 53Z" fill="#BEC9C5"/>
<path d="M110 67H40C38.3431 67 37 68.3431 37 70C37 71.6569 38.3431 73 40 73H110C111.657 73 113 71.6569 113 70C113 68.3431 111.657 67 110 67Z" fill="#BEC9C5"/>
<path d="M108 83H42C39.7909 83 38 84.7909 38 87V97C38 99.2091 39.7909 101 42 101H108C110.209 101 112 99.2091 112 97V87C112 84.7909 110.209 83 108 83Z" stroke="#82D5C7" stroke-width="2"/>
<path d="M108 109H42C39.2386 109 37 111.239 37 114V122C37 124.761 39.2386 127 42 127H108C110.761 127 113 124.761 113 122V114C113 111.239 110.761 109 108 109Z" stroke="#82D5C7" stroke-width="2"/>
<path d="M53 32C55.2091 32 57 30.2091 57 28C57 25.7909 55.2091 24 53 24C50.7909 24 49 25.7909 49 28C49 30.2091 50.7909 32 53 32Z" fill="#BEC9C5"/>
<path d="M75 32C77.2091 32 79 30.2091 79 28C79 25.7909 77.2091 24 75 24C72.7909 24 71 25.7909 71 28C71 30.2091 72.7909 32 75 32Z" fill="#82D5C7"/>
<path d="M97 32C99.2091 32 101 30.2091 101 28C101 25.7909 99.2091 24 97 24C94.7909 24 93 25.7909 93 28C93 30.2091 94.7909 32 97 32Z" fill="#BEC9C5"/>
<defs>
<filter id="filter0_d_7_3" x="21" y="34" width="108" height="127" filterUnits="userSpaceOnUse" color-interpolation-filters="sRGB">
<feFlood flood-opacity="0" result="BackgroundImageFix"/>
<feColorMatrix in="SourceAlpha" type="matrix" values="0 0 0 0 0 0 0 0 0 0 0 0 0 0 0 0 0 0 127 0" result="hardAlpha"/>
<feOffset dy="-3"/>
<feGaussianBlur stdDeviation="3"/>
<feColorMatrix type="matrix" values="0 0 0 0 0 0 0 0 0 0 0 0 0 0 0 0 0 0 0.349 0"/>
<feBlend mode="normal" in2="BackgroundImageFix" result="effect1_dropShadow_7_3"/>
<feBlend mode="normal" in="SourceGraphic" in2="effect1_dropShadow_7_3" result="shape"/>
</filter>
</defs>
</svg>
