<svg width="200" height="150" viewBox="0 0 200 150" fill="none" xmlns="http://www.w3.org/2000/svg">
<path d="M102 150C143.421 150 177 116.421 177 75C177 33.5786 143.421 0 102 0C60.5786 0 27 33.5786 27 75C27 116.421 60.5786 150 102 150Z" fill="#252B2A"/>
<g filter="url(#filter0_d_4_3)">
<path d="M146 15H11C8.23858 15 6 17.2386 6 20V45C6 47.7614 8.23858 50 11 50H146C148.761 50 151 47.7614 151 45V20C151 17.2386 148.761 15 146 15Z" fill="#3F4946"/>
</g>
<path d="M75 23H49C47.3431 23 46 24.3431 46 26C46 27.6569 47.3431 29 49 29H75C76.6569 29 78 27.6569 78 26C78 24.3431 76.6569 23 75 23Z" fill="#82D5C7"/>
<path d="M93 36H49C47.3431 36 46 37.3431 46 39C46 40.6569 47.3431 42 49 42H93C94.6569 42 96 40.6569 96 39C96 37.3431 94.6569 36 93 36Z" fill="#BEC9C5"/>
<path d="M33 18H14C11.2386 18 9 20.2386 9 23V42C9 44.7614 11.2386 47 14 47H33C35.7614 47 38 44.7614 38 42V23C38 20.2386 35.7614 18 33 18Z" fill="#82D5C7"/>
<path d="M21.222 35.78H23.222L23.244 35.01C23.244 33.998 23.882 33.734 24.784 33.448C25.6888 33.1906 26.4852 32.6456 27.0528 31.8955C27.6204 31.1453 27.9283 30.2307 27.93 29.29C27.9498 28.7156 27.8502 28.1434 27.6374 27.6096C27.4246 27.0757 27.1033 26.5919 26.6939 26.1886C26.2844 25.7854 25.7957 25.4715 25.2587 25.2669C24.7216 25.0623 24.148 24.9714 23.574 25C22.9674 24.9868 22.3645 25.0969 21.8017 25.3237C21.239 25.5505 20.7281 25.8892 20.3002 26.3194C19.8723 26.7495 19.5363 27.2621 19.3124 27.826C19.0886 28.39 18.9816 28.9935 18.998 29.6H21.066C21.0581 29.2651 21.1172 28.932 21.2397 28.6203C21.3623 28.3085 21.5458 28.0244 21.7796 27.7844C22.0133 27.5445 22.2926 27.3537 22.6011 27.2231C22.9096 27.0925 23.241 27.0248 23.576 27.024C23.8781 27.0065 24.1804 27.0542 24.4624 27.1639C24.7444 27.2736 24.9994 27.4428 25.2102 27.6599C25.421 27.8769 25.5826 28.1368 25.6841 28.4219C25.7855 28.707 25.8243 29.0106 25.798 29.312C25.7847 29.7999 25.615 30.2706 25.314 30.6548C25.013 31.039 24.5965 31.3163 24.126 31.446L23.4 31.734C22.6892 31.9053 22.0687 32.3372 21.6612 32.9443C21.2538 33.5514 21.0892 34.2893 21.2 35.012L21.222 35.78ZM22.212 40.534C22.4078 40.541 22.6031 40.5086 22.7862 40.4388C22.9693 40.369 23.1366 40.2632 23.2781 40.1276C23.4196 39.9921 23.5325 39.8295 23.6101 39.6496C23.6878 39.4696 23.7285 39.276 23.73 39.08C23.7283 38.8842 23.6873 38.6907 23.6096 38.511C23.5318 38.3313 23.4189 38.169 23.2774 38.0337C23.1359 37.8983 22.9687 37.7927 22.7857 37.723C22.6028 37.6534 22.4077 37.621 22.212 37.628C22.0163 37.621 21.8212 37.6534 21.6383 37.723C21.4553 37.7927 21.2881 37.8983 21.1466 38.0337C21.0051 38.169 20.8922 38.3313 20.8144 38.511C20.7367 38.6907 20.6957 38.8842 20.694 39.08C20.6955 39.276 20.7362 39.4696 20.8138 39.6496C20.8915 39.8295 21.0044 39.9921 21.1459 40.1276C21.2874 40.2632 21.4547 40.369 21.6378 40.4388C21.8209 40.5086 22.0162 40.541 22.212 40.534Z" fill="#003731"/>
<g filter="url(#filter1_d_4_3)">
<path d="M189 58H54C51.2386 58 49 60.2386 49 63V88C49 90.7614 51.2386 93 54 93H189C191.761 93 194 90.7614 194 88V63C194 60.2386 191.761 58 189 58Z" fill="#3F4946"/>
</g>
<path d="M118 66H92C90.3431 66 89 67.3431 89 69C89 70.6569 90.3431 72 92 72H118C119.657 72 121 70.6569 121 69C121 67.3431 119.657 66 118 66Z" fill="#82D5C7"/>
<path d="M136 79H92C90.3431 79 89 80.3431 89 82C89 83.6569 90.3431 85 92 85H136C137.657 85 139 83.6569 139 82C139 80.3431 137.657 79 136 79Z" fill="#BEC9C5"/>
<path d="M76 61H57C54.2386 61 52 63.2386 52 66V85C52 87.7614 54.2386 90 57 90H76C78.7614 90 81 87.7614 81 85V66C81 63.2386 78.7614 61 76 61Z" fill="#82D5C7"/>
<path d="M64.222 78.78H66.222L66.244 78.01C66.244 76.998 66.882 76.734 67.784 76.448C68.6888 76.1906 69.4852 75.6456 70.0528 74.8955C70.6204 74.1453 70.9283 73.2307 70.93 72.29C70.9498 71.7156 70.8502 71.1434 70.6374 70.6096C70.4246 70.0757 70.1033 69.5919 69.6939 69.1886C69.2844 68.7854 68.7957 68.4715 68.2587 68.2669C67.7216 68.0623 67.148 67.9714 66.574 68C65.9674 67.9868 65.3645 68.0969 64.8017 68.3237C64.239 68.5505 63.7281 68.8892 63.3002 69.3194C62.8723 69.7495 62.5363 70.2621 62.3124 70.826C62.0886 71.39 61.9816 71.9935 61.998 72.6H64.066C64.0581 72.2651 64.1172 71.932 64.2397 71.6203C64.3623 71.3085 64.5458 71.0244 64.7796 70.7844C65.0133 70.5445 65.2926 70.3537 65.6011 70.2231C65.9096 70.0925 66.241 70.0248 66.576 70.024C66.8781 70.0065 67.1804 70.0542 67.4624 70.1639C67.7444 70.2736 67.9994 70.4428 68.2102 70.6599C68.421 70.8769 68.5826 71.1368 68.6841 71.4219C68.7855 71.707 68.8243 72.0106 68.798 72.312C68.7847 72.7999 68.615 73.2706 68.314 73.6548C68.013 74.039 67.5965 74.3163 67.126 74.446L66.4 74.734C65.6892 74.9053 65.0687 75.3372 64.6612 75.9443C64.2538 76.5514 64.0892 77.2893 64.2 78.012L64.222 78.78ZM65.212 83.534C65.4078 83.541 65.6031 83.5086 65.7862 83.4388C65.9693 83.369 66.1366 83.2632 66.2781 83.1276C66.4196 82.9921 66.5325 82.8295 66.6101 82.6496C66.6878 82.4696 66.7285 82.276 66.73 82.08C66.7283 81.8842 66.6873 81.6907 66.6096 81.511C66.5318 81.3313 66.4189 81.169 66.2774 81.0337C66.1359 80.8983 65.9687 80.7927 65.7857 80.723C65.6028 80.6534 65.4077 80.621 65.212 80.628C65.0163 80.621 64.8212 80.6534 64.6383 80.723C64.4553 80.7927 64.2881 80.8983 64.1466 81.0337C64.0051 81.169 63.8922 81.3313 63.8144 81.511C63.7367 81.6907 63.6957 81.8842 63.694 82.08C63.6955 82.276 63.7362 82.4696 63.8138 82.6496C63.8915 82.8295 64.0044 82.9921 64.1459 83.1276C64.2874 83.2632 64.4547 83.369 64.6378 83.4388C64.8209 83.5086 65.0162 83.541 65.212 83.534Z" fill="#003731"/>
<g filter="url(#filter2_d_4_3)">
<path d="M146 101H11C8.23858 101 6 103.239 6 106V131C6 133.761 8.23858 136 11 136H146C148.761 136 151 133.761 151 131V106C151 103.239 148.761 101 146 101Z" fill="#3F4946"/>
</g>
<path d="M75 109H49C47.3431 109 46 110.343 46 112C46 113.657 47.3431 115 49 115H75C76.6569 115 78 113.657 78 112C78 110.343 76.6569 109 75 109Z" fill="#82D5C7"/>
<path d="M93 122H49C47.3431 122 46 123.343 46 125C46 126.657 47.3431 128 49 128H93C94.6569 128 96 126.657 96 125C96 123.343 94.6569 122 93 122Z" fill="#BEC9C5"/>
<path d="M33 104H14C11.2386 104 9 106.239 9 109V128C9 130.761 11.2386 133 14 133H33C35.7614 133 38 130.761 38 128V109C38 106.239 35.7614 104 33 104Z" fill="#82D5C7"/>
<path d="M21.222 121.78H23.222L23.244 121.01C23.244 119.998 23.882 119.734 24.784 119.448C25.6888 119.191 26.4852 118.646 27.0528 117.895C27.6204 117.145 27.9283 116.231 27.93 115.29C27.9498 114.716 27.8502 114.143 27.6374 113.61C27.4246 113.076 27.1033 112.592 26.6939 112.189C26.2844 111.785 25.7957 111.472 25.2587 111.267C24.7216 111.062 24.148 110.971 23.574 111C22.9674 110.987 22.3645 111.097 21.8017 111.324C21.239 111.55 20.7281 111.889 20.3002 112.319C19.8723 112.75 19.5363 113.262 19.3124 113.826C19.0886 114.39 18.9816 114.993 18.998 115.6H21.066C21.0581 115.265 21.1172 114.932 21.2397 114.62C21.3623 114.309 21.5458 114.024 21.7796 113.784C22.0133 113.545 22.2926 113.354 22.6011 113.223C22.9096 113.093 23.241 113.025 23.576 113.024C23.8781 113.006 24.1804 113.054 24.4624 113.164C24.7444 113.274 24.9994 113.443 25.2102 113.66C25.421 113.877 25.5826 114.137 25.6841 114.422C25.7855 114.707 25.8243 115.011 25.798 115.312C25.7847 115.8 25.615 116.271 25.314 116.655C25.013 117.039 24.5965 117.316 24.126 117.446L23.4 117.734C22.6892 117.905 22.0687 118.337 21.6612 118.944C21.2538 119.551 21.0892 120.289 21.2 121.012L21.222 121.78ZM22.212 126.534C22.4078 126.541 22.6031 126.509 22.7862 126.439C22.9693 126.369 23.1366 126.263 23.2781 126.128C23.4196 125.992 23.5325 125.83 23.6101 125.65C23.6878 125.47 23.7285 125.276 23.73 125.08C23.7283 124.884 23.6873 124.691 23.6096 124.511C23.5318 124.331 23.4189 124.169 23.2774 124.034C23.1359 123.898 22.9687 123.793 22.7857 123.723C22.6028 123.653 22.4077 123.621 22.212 123.628C22.0163 123.621 21.8212 123.653 21.6383 123.723C21.4553 123.793 21.2881 123.898 21.1466 124.034C21.0051 124.169 20.8922 124.331 20.8144 124.511C20.7367 124.691 20.6957 124.884 20.694 125.08C20.6955 125.276 20.7362 125.47 20.8138 125.65C20.8915 125.83 21.0044 125.992 21.1459 126.128C21.2874 126.263 21.4547 126.369 21.6378 126.439C21.8209 126.509 22.0162 126.541 22.212 126.534Z" fill="#003731"/>
<defs>
<filter id="filter0_d_4_3" x="0" y="6" width="157" height="47" filterUnits="userSpaceOnUse" color-interpolation-filters="sRGB">
<feFlood flood-opacity="0" result="BackgroundImageFix"/>
<feColorMatrix in="SourceAlpha" type="matrix" values="0 0 0 0 0 0 0 0 0 0 0 0 0 0 0 0 0 0 127 0" result="hardAlpha"/>
<feOffset dy="-3"/>
<feGaussianBlur stdDeviation="3"/>
<feColorMatrix type="matrix" values="0 0 0 0 0 0 0 0 0 0 0 0 0 0 0 0 0 0 0.349 0"/>
<feBlend mode="normal" in2="BackgroundImageFix" result="effect1_dropShadow_4_3"/>
<feBlend mode="normal" in="SourceGraphic" in2="effect1_dropShadow_4_3" result="shape"/>
</filter>
<filter id="filter1_d_4_3" x="43" y="49" width="157" height="47" filterUnits="userSpaceOnUse" color-interpolation-filters="sRGB">
<feFlood flood-opacity="0" result="BackgroundImageFix"/>
<feColorMatrix in="SourceAlpha" type="matrix" values="0 0 0 0 0 0 0 0 0 0 0 0 0 0 0 0 0 0 127 0" result="hardAlpha"/>
<feOffset dy="-3"/>
<feGaussianBlur stdDeviation="3"/>
<feColorMatrix type="matrix" values="0 0 0 0 0 0 0 0 0 0 0 0 0 0 0 0 0 0 0.349 0"/>
<feBlend mode="normal" in2="BackgroundImageFix" result="effect1_dropShadow_4_3"/>
<feBlend mode="normal" in="SourceGraphic" in2="effect1_dropShadow_4_3" result="shape"/>
</filter>
<filter id="filter2_d_4_3" x="0" y="92" width="157" height="47" filterUnits="userSpaceOnUse" color-interpolation-filters="sRGB">
<feFlood flood-opacity="0" result="BackgroundImageFix"/>
<feColorMatrix in="SourceAlpha" type="matrix" values="0 0 0 0 0 0 0 0 0 0 0 0 0 0 0 0 0 0 127 0" result="hardAlpha"/>
<feOffset dy="-3"/>
<feGaussianBlur stdDeviation="3"/>
<feColorMatrix type="matrix" values="0 0 0 0 0 0 0 0 0 0 0 0 0 0 0 0 0 0 0.349 0"/>
<feBlend mode="normal" in2="BackgroundImageFix" result="effect1_dropShadow_4_3"/>
<feBlend mode="normal" in="SourceGraphic" in2="effect1_dropShadow_4_3" result="shape"/>
</filter>
</defs>
</svg>
